<svg width="705" height="576" viewBox="0 0 705 576" fill="none" xmlns="http://www.w3.org/2000/svg">
<g filter="url(#filter0_d_8_281)">
<path fill-rule="evenodd" clip-rule="evenodd" d="M483.226 56C506.065 66.0802 522.005 88.9258 522.005 115.495V407.191C522.005 443.089 492.904 472.191 457.005 472.191H165.309C129.411 472.191 100.309 443.089 100.309 407.191V115.495C100.309 88.9259 116.25 66.0803 139.089 56H-11C-49.6599 56 -81 87.3401 -81 126V442C-81 480.66 -49.6599 512 -11 512H575C613.66 512 645 480.66 645 442V126C645 87.3401 613.66 56 575 56H483.226Z" fill="#6663E9"/>
</g>
<defs>
<filter id="filter0_d_8_281" x="-141" y="0" width="846" height="576" filterUnits="userSpaceOnUse" color-interpolation-filters="sRGB">
<feFlood flood-opacity="0" result="BackgroundImageFix"/>
<feColorMatrix in="SourceAlpha" type="matrix" values="0 0 0 0 0 0 0 0 0 0 0 0 0 0 0 0 0 0 127 0" result="hardAlpha"/>
<feOffset dy="4"/>
<feGaussianBlur stdDeviation="30"/>
<feColorMatrix type="matrix" values="0 0 0 0 0 0 0 0 0 0 0 0 0 0 0 0 0 0 0.05 0"/>
<feBlend mode="normal" in2="BackgroundImageFix" result="effect1_dropShadow_8_281"/>
<feBlend mode="normal" in="SourceGraphic" in2="effect1_dropShadow_8_281" result="shape"/>
</filter>
</defs>
</svg>
