<svg width="177" height="61" viewBox="0 0 177 61" fill="none" xmlns="http://www.w3.org/2000/svg">
<path d="M0 20.3069V31.5869C3.83828 31.5842 7.63943 32.3416 11.1859 33.8158C14.7324 35.2899 17.9547 37.4519 20.6683 40.1779C23.3813 42.903 25.5328 46.1384 26.9998 49.6991C28.4669 53.2597 29.2207 57.0759 29.2182 60.9293H40.4425C40.4323 50.1601 36.1685 39.8347 28.5864 32.219C21.0044 24.6033 10.7236 20.3192 0 20.3069H0Z" fill="#6663E9"/>
<path d="M56.1317 0H38.3438C47.3423 5.7268 54.9671 13.3829 60.6709 22.4189V4.55529C60.6701 3.34686 60.1915 2.18821 59.3403 1.33402C58.4891 0.479827 57.3351 -2.99019e-07 56.1317 0Z" fill="#6663E9"/>
<path d="M11.1764 0H0V10.156C13.4049 10.17 26.2567 15.5238 35.7356 25.0426C45.2144 34.5614 50.5459 47.4678 50.5603 60.9296H60.6717V49.7057C58.3856 37.3699 52.4332 26.0186 43.5982 17.1461C34.7633 8.27356 23.4599 2.29588 11.1764 0Z" fill="#6663E9"/>
<path d="M88.1835 6.70703H81.0593V42.7677H88.1835V6.70703Z" fill="#6663E9"/>
<path d="M114.378 22.3303C113.192 21.2476 111.804 20.4121 110.294 19.8723C107.05 18.7285 103.515 18.7285 100.272 19.8723C98.761 20.4117 97.3722 21.2472 96.1858 22.3303C95.0224 23.4075 94.0929 24.7143 93.4556 26.1689C92.7969 27.7557 92.4578 29.4579 92.4578 31.1771C92.4578 32.8963 92.7969 34.5985 93.4556 36.1854C94.0905 37.6441 95.0202 38.9545 96.1858 40.0335C97.3701 41.1174 98.7581 41.9525 100.268 42.49C103.512 43.6358 107.047 43.6358 110.29 42.49C111.801 41.9525 113.19 41.1174 114.375 40.0335C115.54 38.9541 116.469 37.6438 117.105 36.1854C117.763 34.5985 118.103 32.8963 118.103 31.1771C118.103 29.4579 117.763 27.7557 117.105 26.1689C116.468 24.7147 115.54 23.408 114.378 22.3303ZM109.486 35.4237C108.332 36.4673 106.834 37.0449 105.282 37.0449C103.729 37.0449 102.231 36.4673 101.078 35.4237C100.108 34.2217 99.5792 32.7217 99.5792 31.1747C99.5792 29.6277 100.108 28.1277 101.078 26.9257C102.231 25.8821 103.729 25.3045 105.282 25.3045C106.834 25.3045 108.332 25.8821 109.486 26.9257C110.455 28.1277 110.984 29.6277 110.984 31.1747C110.984 32.7217 110.455 34.2217 109.486 35.4237Z" fill="#6663E9"/>
<path d="M139.954 22.6394H139.865C139.535 22.1749 139.153 21.7509 138.725 21.376C138.206 20.9155 137.632 20.5222 137.016 20.2055C135.459 19.4031 133.731 18.9942 131.98 19.0141C130.447 18.9872 128.93 19.3396 127.564 20.0403C126.291 20.7022 125.168 21.6196 124.262 22.7356C123.339 23.886 122.631 25.1946 122.172 26.5983C121.684 28.0443 121.436 29.561 121.436 31.0878C121.418 32.7267 121.692 34.3557 122.244 35.898C122.745 37.3055 123.525 38.5962 124.537 39.6917C125.546 40.7637 126.77 41.6082 128.128 42.169C129.605 42.7734 131.187 43.0734 132.782 43.0509C133.961 43.0304 135.128 42.7963 136.224 42.3598C137.454 41.8913 138.52 41.07 139.288 39.998H139.384V42.2427C139.411 42.9915 139.288 43.738 139.023 44.4383C138.758 45.1386 138.355 45.7785 137.84 46.3202C137.186 46.9012 136.422 47.3429 135.593 47.6185C134.764 47.8941 133.888 47.9979 133.018 47.9236C131.639 47.9391 130.272 47.6627 129.006 47.1123C127.746 46.5471 126.571 45.8089 125.514 44.9188L121.572 50.8274C123.183 52.1307 125.067 53.0521 127.082 53.5227C129.076 53.9832 131.116 54.215 133.162 54.2138C137.658 54.2138 141.006 53.077 143.206 50.8033C145.406 48.5297 146.507 45.1989 146.508 40.8109V19.5866H139.962L139.954 22.6394ZM139.526 33.2043C139.245 33.8831 138.833 34.4993 138.314 35.0178C137.786 35.5465 137.167 35.9746 136.486 36.2813C135.78 36.5963 135.015 36.7591 134.242 36.7591C133.469 36.7591 132.705 36.5963 131.998 36.2813C131.327 35.9702 130.715 35.5425 130.192 35.0178C129.671 34.4949 129.258 33.8741 128.976 33.1907C128.693 32.5072 128.548 31.7747 128.548 31.0349C128.548 30.2951 128.693 29.5626 128.976 28.8791C129.258 28.1957 129.671 27.5749 130.192 27.052C130.716 26.5273 131.327 26.0991 131.998 25.7869C132.705 25.4729 133.469 25.3107 134.242 25.3107C135.015 25.3107 135.779 25.4729 136.486 25.7869C137.166 26.0948 137.786 26.5234 138.314 27.052C139.098 27.8431 139.631 28.8494 139.847 29.9441C140.063 31.0388 139.951 32.1731 139.526 33.2043Z" fill="#6663E9"/>
<path d="M173.272 22.3303C172.086 21.2476 170.698 20.4121 169.188 19.8723C165.944 18.7285 162.409 18.7285 159.166 19.8723C157.655 20.4117 156.266 21.2472 155.08 22.3303C153.917 23.4075 152.987 24.7143 152.35 26.1689C151.691 27.7557 151.352 29.4579 151.352 31.1771C151.352 32.8963 151.691 34.5985 152.35 36.1854C152.985 37.6441 153.914 38.9545 155.08 40.0335C156.265 41.1177 157.654 41.9529 159.166 42.49C162.409 43.6358 165.945 43.6358 169.188 42.49C170.699 41.9525 172.087 41.1174 173.272 40.0335C174.438 38.9545 175.367 37.6441 176.002 36.1854C176.661 34.5985 177 32.8963 177 31.1771C177 29.4579 176.661 27.7557 176.002 26.1689C175.365 24.7143 174.435 23.4075 173.272 22.3303ZM168.38 35.4237C167.226 36.4673 165.729 37.0449 164.176 37.0449C162.623 37.0449 161.126 36.4673 159.972 35.4237C159.003 34.2217 158.473 32.7217 158.473 31.1747C158.473 29.6277 159.003 28.1277 159.972 26.9257C161.126 25.8821 162.623 25.3045 164.176 25.3045C165.729 25.3045 167.226 25.8821 168.38 26.9257C169.35 28.1277 169.879 29.6277 169.879 31.1747C169.879 32.7217 169.35 34.2217 168.38 35.4237Z" fill="#6663E9"/>
</svg>
