<svg width="154" height="38" viewBox="0 0 154 38" fill="none" xmlns="http://www.w3.org/2000/svg">
<path d="M0 2.6273V1.16482H0.580383L4.80135 1.26928C7.26358 1.30411 9.90169 1.30411 12.7157 1.26928C15.9869 1.19964 17.605 1.16482 17.5698 1.16482H18.2029V2.6273V4.08979H15.5648C13.1026 4.12461 11.7659 4.24648 11.5549 4.45541C11.4845 4.49023 11.4494 9.34776 11.4494 19.028V33.4962L11.5549 33.6006C11.5901 33.6354 11.6956 33.7051 11.8715 33.8095C12.2584 33.9488 14.1227 33.9836 17.4643 33.914C17.816 33.8792 18.0622 33.8618 18.2029 33.8618C21.6149 33.5484 23.9364 32.173 25.1675 29.7355C25.9062 28.3775 26.4338 26.323 26.7504 23.5722C26.8207 22.8409 26.8735 22.4231 26.9087 22.3186V22.0574H28.2277H29.5468V22.3186C29.5116 22.3882 29.2654 24.7561 28.8081 29.4221C28.3508 34.1229 28.1046 36.5082 28.0694 36.5778V36.839H14.0347H0V35.3765V33.914H1.47734C3.93957 33.914 5.24103 33.7921 5.38173 33.5484V4.45541C5.24103 4.21166 3.93957 4.08979 1.47734 4.08979H0V2.6273Z" fill="#6663E9"/>
<path d="M51.443 0.0679569C55.7695 -0.315074 59.7267 0.921074 63.3145 3.7764C64.0884 4.36835 65.0029 5.2737 66.0581 6.49244C68.3797 9.34776 69.8043 12.795 70.3319 16.8343C70.4726 17.9834 70.4902 19.3414 70.3846 20.9083C70.3495 21.0128 70.3319 21.1173 70.3319 21.2217C69.8394 25.3306 68.3621 28.8475 65.8999 31.7725C62.7693 35.4287 58.9353 37.4832 54.3977 37.9358C52.9907 38.0403 51.6013 37.9881 50.2295 37.7791C45.7623 37.0479 42.0866 34.8193 39.2022 31.0935C37.3028 28.5864 36.0893 25.7485 35.5617 22.5798C35.3858 21.7092 35.2978 20.5427 35.2978 19.0802C35.2978 17.6874 35.4034 16.4513 35.6144 15.3718C36.0013 13.0736 36.7576 10.9669 37.8832 9.05179C38.3756 8.21608 38.956 7.36296 39.6243 6.49244C40.7147 5.23888 41.6469 4.33353 42.4207 3.7764C45.0588 1.61749 48.0663 0.381346 51.443 0.0679569ZM54.345 2.73177C53.3249 2.6273 52.4983 2.60989 51.8651 2.67953C48.6642 3.06257 46.1668 4.73398 44.3729 7.69376C44.1619 8.04198 43.9684 8.40759 43.7925 8.79063C42.9132 10.6013 42.3504 12.8473 42.1042 15.5285C41.9635 16.7124 41.9459 18.4361 42.0514 20.6994C42.0866 20.978 42.1042 21.1869 42.1042 21.3262C42.3504 24.2512 42.9132 26.706 43.7925 28.6908C45.3402 32.1381 47.6793 34.2622 50.8099 35.0631C50.9506 35.0979 51.1089 35.1327 51.2848 35.1676C52.3048 35.3765 53.3425 35.3765 54.3977 35.1676C57.5986 34.5408 60.0257 32.5212 61.6789 29.1087C61.7492 28.9694 61.8196 28.8301 61.8899 28.6908C62.7693 26.706 63.3321 24.2512 63.5783 21.3262C63.719 20.0726 63.7366 18.3316 63.6311 16.103C63.5959 15.8593 63.5783 15.6678 63.5783 15.5285C63.3321 12.325 62.5758 9.71339 61.3096 7.69376C59.6212 4.90808 57.2996 3.25408 54.345 2.73177Z" fill="#6663E9"/>
<path d="M93.7751 0.0679569C94.6897 -0.00168426 95.5866 -0.00168426 96.466 0.0679569C99.3855 0.346526 101.865 1.53044 103.905 3.6197C104.187 3.86345 104.345 4.00274 104.38 4.03756L106.016 2.05276C107.001 0.903662 107.581 0.242062 107.757 0.0679569C107.792 0.0331363 107.986 0.015726 108.337 0.015726C108.619 0.015726 108.812 0.0679579 108.918 0.172422L109.076 0.329114V7.74599V15.1106L108.918 15.2673L108.76 15.424H107.599C106.755 15.424 106.297 15.3544 106.227 15.2151C106.192 15.1455 106.121 14.8321 106.016 14.2749C105.418 9.53928 103.73 6.19646 100.951 4.24648C100.071 3.65453 99.1217 3.25408 98.1016 3.04516C97.363 2.90587 96.3429 2.90587 95.0414 3.04516C91.9461 3.46301 89.4311 4.62951 87.4964 6.54467C85.7729 8.2509 84.6297 10.4794 84.0669 13.2303C83.7855 14.658 83.6448 16.5731 83.6448 18.9758C83.6448 21.4132 83.7855 23.3284 84.0669 24.7212C84.8408 28.4123 86.5995 31.1457 89.3431 32.9216C91.3129 34.2448 93.6344 34.9586 96.3077 35.0631C99.0162 35.1676 100.986 34.4189 102.217 32.8171C102.534 32.4341 102.762 32.0337 102.903 31.6158L103.008 31.198L103.061 28.5864V25.9226L102.956 25.8181C102.885 25.7833 102.745 25.7311 102.534 25.6614C102.112 25.557 100.669 25.5047 98.2072 25.5047H96.466V24.0422V22.5798H97.0992L101.901 22.6842C104.679 22.719 107.036 22.719 108.971 22.6842L112.295 22.5798H112.717V24.0422V25.5047H111.292C110.096 25.5395 109.41 25.644 109.234 25.8181L109.076 25.9226V31.2502V36.5256L108.918 36.6823C108.742 36.8564 108.425 36.8216 107.968 36.5778C106.702 35.8117 105.752 35.1501 105.119 34.593L104.75 34.2274L104.486 34.5408C103.923 35.272 103.114 35.8988 102.059 36.4211C98.9986 38.0229 95.4811 38.4059 91.5064 37.5702C91.2953 37.5354 91.1019 37.5006 90.926 37.4657C87.7251 36.63 84.9287 35.0457 82.5368 32.7127C81.0946 31.285 79.9163 29.6832 79.0018 27.9074C76.5395 23.1021 76.1174 18.1575 77.7355 13.0736C78.0872 12.0638 78.5093 11.0714 79.0018 10.0964C81.0771 6.02236 84.2076 3.1148 88.3934 1.37375C89.2024 1.02554 90.0466 0.746969 90.926 0.538041C91.9461 0.294295 92.8958 0.1376 93.7751 0.0679569Z" fill="#6663E9"/>
<path d="M134.991 0.0679569C139.317 -0.315074 143.274 0.921074 146.862 3.7764C147.636 4.36835 148.55 5.2737 149.606 6.49244C151.927 9.34776 153.352 12.795 153.879 16.8343C154.02 17.9834 154.038 19.3414 153.932 20.9083C153.897 21.0128 153.879 21.1173 153.879 21.2217C153.387 25.3306 151.91 28.8475 149.447 31.7725C146.317 35.4287 142.483 37.4832 137.945 37.9358C136.538 38.0403 135.149 37.9881 133.777 37.7791C129.31 37.0479 125.634 34.8193 122.75 31.0935C120.85 28.5864 119.637 25.7485 119.109 22.5798C118.933 21.7092 118.845 20.5427 118.845 19.0802C118.845 17.6874 118.951 16.4513 119.162 15.3718C119.549 13.0736 120.305 10.9669 121.431 9.05179C121.923 8.21608 122.504 7.36296 123.172 6.49244C124.262 5.23888 125.194 4.33353 125.968 3.7764C128.606 1.61749 131.614 0.381346 134.991 0.0679569ZM137.892 2.73177C136.872 2.6273 136.046 2.60989 135.413 2.67953C132.212 3.06257 129.714 4.73398 127.92 7.69376C127.709 8.04198 127.516 8.40759 127.34 8.79063C126.461 10.6013 125.898 12.8473 125.652 15.5285C125.511 16.7124 125.493 18.4361 125.599 20.6994C125.634 20.978 125.652 21.1869 125.652 21.3262C125.898 24.2512 126.461 26.706 127.34 28.6908C128.888 32.1381 131.227 34.2622 134.357 35.0631C134.498 35.0979 134.656 35.1327 134.832 35.1676C135.852 35.3765 136.89 35.3765 137.945 35.1676C141.146 34.5408 143.573 32.5212 145.226 29.1087C145.297 28.9694 145.367 28.8301 145.437 28.6908C146.317 26.706 146.88 24.2512 147.126 21.3262C147.267 20.0726 147.284 18.3316 147.179 16.103C147.143 15.8593 147.126 15.6678 147.126 15.5285C146.88 12.325 146.123 9.71339 144.857 7.69376C143.169 4.90808 140.847 3.25408 137.892 2.73177Z" fill="#6663E9"/>
</svg>
